{"asset":{"generator":"Khronos glTF Blender I/O v3.4.50","version":"2.0"},"scene":0,"scenes":[{"name":"Scene","nodes":[0,1,2,3,4,5,6,7,8,9,10,11,12,13]}],"nodes":[{"mesh":0,"name":"Cylinder","rotation":[0.7071068286895752,0,0,0.7071068286895752],"scale":[1,10,1],"translation":[-14,-0.7960186004638672,0]},{"mesh":1,"name":"Cylinder.001","rotation":[0.7071068286895752,0,0,0.7071068286895752],"scale":[1,10,1],"translation":[-12,-0.7960186004638672,0]},{"mesh":2,"name":"Cylinder.002","rotation":[0.7071068286895752,0,0,0.7071068286895752],"scale":[1,10,1],"translation":[-10,-0.7960186004638672,0]},{"mesh":3,"name":"Cylinder.003","rotation":[0.7071068286895752,0,0,0.7071068286895752],"scale":[1,10,1],"translation":[-16,-0.7960186004638672,0]},{"mesh":4,"name":"Cylinder.004","rotation":[0.7071068286895752,0,0,0.7071068286895752],"scale":[1,10,1],"translation":[-8,-0.7960186004638672,0]},{"mesh":5,"name":"Cylinder.005","rotation":[0.7071068286895752,0,0,0.7071068286895752],"scale":[1,10,1],"translation":[-6,-0.7960186004638672,0]},{"mesh":6,"name":"Cube","scale":[10,1,10],"translation":[16,-0.739825963973999,0]},{"mesh":7,"name":"Cube.001","scale":[5,1,5],"translation":[16,-0.4174061715602875,0]},{"mesh":8,"name":"Cube.002","scale":[2.5,1,2.5],"translation":[16,-0.09602147340774536,0]},{"mesh":9,"name":"Cube.003","scale":[250,1,250],"translation":[0,-1,0]},{"mesh":10,"name":"Cube.004","scale":[250,50,1],"translation":[0,50,251]},{"mesh":11,"name":"Cube.005","rotation":[0,-1,0,4.371138828673793e-8],"scale":[250,50,1],"translation":[0,50,-251]},{"mesh":12,"name":"Cube.006","rotation":[0,0.7071068286895752,0,0.7071068286895752],"scale":[250,50,1],"translation":[251,50,0]},{"mesh":13,"name":"Cube.007","rotation":[0,-0.7071068286895752,0,0.7071068286895752],"scale":[250,50,1],"translation":[-251,50,0]}],"meshes":[{"name":"Cylinder","primitives":[{"attributes":{"POSITION":0,"TEXCOORD_0":1,"NORMAL":2},"indices":3}]},{"name":"Cylinder.001","primitives":[{"attributes":{"POSITION":4,"TEXCOORD_0":5,"NORMAL":6},"indices":3}]},{"name":"Cylinder.002","primitives":[{"attributes":{"POSITION":7,"TEXCOORD_0":8,"NORMAL":9},"indices":3}]},{"name":"Cylinder.003","primitives":[{"attributes":{"POSITION":10,"TEXCOORD_0":11,"NORMAL":12},"indices":3}]},{"name":"Cylinder.004","primitives":[{"attributes":{"POSITION":13,"TEXCOORD_0":14,"NORMAL":15},"indices":3}]},{"name":"Cylinder.005","primitives":[{"attributes":{"POSITION":16,"TEXCOORD_0":17,"NORMAL":18},"indices":3}]},{"name":"Cube.001","primitives":[{"attributes":{"POSITION":19,"TEXCOORD_0":20,"NORMAL":21},"indices":22}]},{"name":"Cube.002","primitives":[{"attributes":{"POSITION":23,"TEXCOORD_0":24,"NORMAL":25},"indices":22}]},{"name":"Cube.003","primitives":[{"attributes":{"POSITION":26,"TEXCOORD_0":27,"NORMAL":28},"indices":22}]},{"name":"Cube.004","primitives":[{"attributes":{"POSITION":29,"TEXCOORD_0":30,"NORMAL":31},"indices":32}]},{"name":"Cube.005","primitives":[{"attributes":{"POSITION":33,"TEXCOORD_0":34,"NORMAL":35},"indices":36}]},{"name":"Cube.006","primitives":[{"attributes":{"POSITION":37,"TEXCOORD_0":38,"NORMAL":39},"indices":36}]},{"name":"Cube.007","primitives":[{"attributes":{"POSITION":40,"TEXCOORD_0":41,"NORMAL":42},"indices":36}]},{"name":"Cube.008","primitives":[{"attributes":{"POSITION":43,"TEXCOORD_0":44,"NORMAL":45},"indices":36}]}],"accessors":[{"bufferView":0,"componentType":5126,"count":130,"max":[1,1,1],"min":[-1,-1,-1],"type":"VEC3"},{"bufferView":1,"componentType":5126,"count":130,"type":"VEC2"},{"bufferView":2,"componentType":5126,"count":130,"type":"VEC3"},{"bufferView":3,"componentType":5123,"count":372,"type":"SCALAR"},{"bufferView":4,"componentType":5126,"count":130,"max":[1,1,1],"min":[-1,-1,-1],"type":"VEC3"},{"bufferView":5,"componentType":5126,"count":130,"type":"VEC2"},{"bufferView":6,"componentType":5126,"count":130,"type":"VEC3"},{"bufferView":7,"componentType":5126,"count":130,"max":[1,1,1],"min":[-1,-1,-1],"type":"VEC3"},{"bufferView":8,"componentType":5126,"count":130,"type":"VEC2"},{"bufferView":9,"componentType":5126,"count":130,"type":"VEC3"},{"bufferView":10,"componentType":5126,"count":130,"max":[1,1,1],"min":[-1,-1,-1],"type":"VEC3"},{"bufferView":11,"componentType":5126,"count":130,"type":"VEC2"},{"bufferView":12,"componentType":5126,"count":130,"type":"VEC3"},{"bufferView":13,"componentType":5126,"count":130,"max":[1,1,1],"min":[-1,-1,-1],"type":"VEC3"},{"bufferView":14,"componentType":5126,"count":130,"type":"VEC2"},{"bufferView":15,"componentType":5126,"count":130,"type":"VEC3"},{"bufferView":16,"componentType":5126,"count":130,"max":[1,1,1],"min":[-1,-1,-1],"type":"VEC3"},{"bufferView":17,"componentType":5126,"count":130,"type":"VEC2"},{"bufferView":18,"componentType":5126,"count":130,"type":"VEC3"},{"bufferView":19,"componentType":5126,"count":24,"max":[1,1,1],"min":[-1,-1,-1],"type":"VEC3"},{"bufferView":20,"componentType":5126,"count":24,"type":"VEC2"},{"bufferView":21,"componentType":5126,"count":24,"type":"VEC3"},{"bufferView":22,"componentType":5123,"count":36,"type":"SCALAR"},{"bufferView":23,"componentType":5126,"count":24,"max":[1,1,1],"min":[-1,-1,-1],"type":"VEC3"},{"bufferView":24,"componentType":5126,"count":24,"type":"VEC2"},{"bufferView":25,"componentType":5126,"count":24,"type":"VEC3"},{"bufferView":26,"componentType":5126,"count":24,"max":[1,1,1],"min":[-1,-1,-1],"type":"VEC3"},{"bufferView":27,"componentType":5126,"count":24,"type":"VEC2"},{"bufferView":28,"componentType":5126,"count":24,"type":"VEC3"},{"bufferView":29,"componentType":5126,"count":24,"max":[1,1,1],"min":[-1,-1,-1],"type":"VEC3"},{"bufferView":30,"componentType":5126,"count":24,"type":"VEC2"},{"bufferView":31,"componentType":5126,"count":24,"type":"VEC3"},{"bufferView":32,"componentType":5123,"count":36,"type":"SCALAR"},{"bufferView":33,"componentType":5126,"count":4,"max":[1,1,-1],"min":[-1,-1,-1],"type":"VEC3"},{"bufferView":34,"componentType":5126,"count":4,"type":"VEC2"},{"bufferView":35,"componentType":5126,"count":4,"type":"VEC3"},{"bufferView":36,"componentType":5123,"count":6,"type":"SCALAR"},{"bufferView":37,"componentType":5126,"count":4,"max":[1,1,-1],"min":[-1,-1,-1],"type":"VEC3"},{"bufferView":38,"componentType":5126,"count":4,"type":"VEC2"},{"bufferView":39,"componentType":5126,"count":4,"type":"VEC3"},{"bufferView":40,"componentType":5126,"count":4,"max":[1,1,-1],"min":[-1,-1,-1],"type":"VEC3"},{"bufferView":41,"componentType":5126,"count":4,"type":"VEC2"},{"bufferView":42,"componentType":5126,"count":4,"type":"VEC3"},{"bufferView":43,"componentType":5126,"count":4,"max":[1,1,-1],"min":[-1,-1,-1],"type":"VEC3"},{"bufferView":44,"componentType":5126,"count":4,"type":"VEC2"},{"bufferView":45,"componentType":5126,"count":4,"type":"VEC3"}],"bufferViews":[{"buffer":0,"byteLength":1560,"byteOffset":0,"target":34962},{"buffer":0,"byteLength":1040,"byteOffset":1560,"target":34962},{"buffer":0,"byteLength":1560,"byteOffset":2600,"target":34962},{"buffer":0,"byteLength":744,"byteOffset":4160,"target":34963},{"buffer":0,"byteLength":1560,"byteOffset":4904,"target":34962},{"buffer":0,"byteLength":1040,"byteOffset":6464,"target":34962},{"buffer":0,"byteLength":1560,"byteOffset":7504,"target":34962},{"buffer":0,"byteLength":1560,"byteOffset":9064,"target":34962},{"buffer":0,"byteLength":1040,"byteOffset":10624,"target":34962},{"buffer":0,"byteLength":1560,"byteOffset":11664,"target":34962},{"buffer":0,"byteLength":1560,"byteOffset":13224,"target":34962},{"buffer":0,"byteLength":1040,"byteOffset":14784,"target":34962},{"buffer":0,"byteLength":1560,"byteOffset":15824,"target":34962},{"buffer":0,"byteLength":1560,"byteOffset":17384,"target":34962},{"buffer":0,"byteLength":1040,"byteOffset":18944,"target":34962},{"buffer":0,"byteLength":1560,"byteOffset":19984,"target":34962},{"buffer":0,"byteLength":1560,"byteOffset":21544,"target":34962},{"buffer":0,"byteLength":1040,"byteOffset":23104,"target":34962},{"buffer":0,"byteLength":1560,"byteOffset":24144,"target":34962},{"buffer":0,"byteLength":288,"byteOffset":25704,"target":34962},{"buffer":0,"byteLength":192,"byteOffset":25992,"target":34962},{"buffer":0,"byteLength":288,"byteOffset":26184,"target":34962},{"buffer":0,"byteLength":72,"byteOffset":26472,"target":34963},{"buffer":0,"byteLength":288,"byteOffset":26544,"target":34962},{"buffer":0,"byteLength":192,"byteOffset":26832,"target":34962},{"buffer":0,"byteLength":288,"byteOffset":27024,"target":34962},{"buffer":0,"byteLength":288,"byteOffset":27312,"target":34962},{"buffer":0,"byteLength":192,"byteOffset":27600,"target":34962},{"buffer":0,"byteLength":288,"byteOffset":27792,"target":34962},{"buffer":0,"byteLength":288,"byteOffset":28080,"target":34962},{"buffer":0,"byteLength":192,"byteOffset":28368,"target":34962},{"buffer":0,"byteLength":288,"byteOffset":28560,"target":34962},{"buffer":0,"byteLength":72,"byteOffset":28848,"target":34963},{"buffer":0,"byteLength":48,"byteOffset":28920,"target":34962},{"buffer":0,"byteLength":32,"byteOffset":28968,"target":34962},{"buffer":0,"byteLength":48,"byteOffset":29000,"target":34962},{"buffer":0,"byteLength":12,"byteOffset":29048,"target":34963},{"buffer":0,"byteLength":48,"byteOffset":29060,"target":34962},{"buffer":0,"byteLength":32,"byteOffset":29108,"target":34962},{"buffer":0,"byteLength":48,"byteOffset":29140,"target":34962},{"buffer":0,"byteLength":48,"byteOffset":29188,"target":34962},{"buffer":0,"byteLength":32,"byteOffset":29236,"target":34962},{"buffer":0,"byteLength":48,"byteOffset":29268,"target":34962},{"buffer":0,"byteLength":48,"byteOffset":29316,"target":34962},{"buffer":0,"byteLength":32,"byteOffset":29364,"target":34962},{"buffer":0,"byteLength":48,"byteOffset":29396,"target":34962}],"buffers":[{"byteLength":29444,"uri":"data:application/octet-stream;base64,"}]}